<svg width="386" height="55" viewBox="0 0 386 55" fill="none" xmlns="http://www.w3.org/2000/svg">
<path d="M18.8091 42.4989V47.7848H11.0037C8.10366 47.7848 5.74866 45.4298 5.74866 42.5297V28.2866H0V23.1036H5.73838V15.6992H11.6619V23.1036H18.8091V28.2866H11.6619V42.4989H18.8091Z" fill="black"/>
<path d="M21.2871 35.4475C21.2871 27.8992 26.6656 22.6133 33.8745 22.6133C41.0835 22.6133 46.4619 27.8992 46.4619 35.4475C46.4619 42.9958 41.0835 48.2817 33.8745 48.2817C26.6656 48.2817 21.2871 43.0061 21.2871 35.4475ZM40.5384 35.4475C40.5384 31.0049 37.6795 28.0431 33.8745 28.0431C30.0695 28.0431 27.2106 31.0049 27.2106 35.4475C27.2106 39.8901 30.0695 42.8519 33.8745 42.8519C37.6795 42.8519 40.5384 39.8901 40.5384 35.4475Z" fill="black"/>
<path d="M56.5407 34.8095V47.7877H50.6172V12H56.5407V33.8737L66.1149 23.1168H73.9101L63.0606 34.3159L74.5579 47.7877H67.1536L56.5407 34.8095Z" fill="black"/>
<path d="M98.652 37.422H80.0999C80.7375 41.0213 83.1131 43.0987 86.7639 43.0987C89.376 43.0987 90.9082 42.1114 91.7001 40.3837H98.1172C96.6363 45.5154 92.3377 48.2817 86.517 48.2817C79.4623 48.2817 74.2793 42.9958 74.2793 35.4475C74.2793 27.8992 79.4623 22.6133 86.517 22.6133C93.5718 22.6133 98.7651 27.8992 98.7651 35.4475C98.7548 36.1365 98.7034 36.7844 98.652 37.422ZM80.1411 33.2262H92.8827C92.2451 29.7708 89.9724 27.7963 86.517 27.7963C83.0617 27.7963 80.789 29.7708 80.1411 33.2262Z" fill="black"/>
<path d="M108.834 47.7881H102.91V23.1069H108.834V26.6651C110.366 24.053 112.885 22.6133 115.94 22.6133C121.174 22.6133 125.123 26.0686 125.123 33.0308V47.7881H119.2V34.2134C119.2 30.0691 117.225 27.7963 114.017 27.7963C110.808 27.7963 108.834 30.0691 108.834 34.2134V47.7881Z" fill="black"/>
<path d="M160.912 42.4989V47.7848H153.107C150.207 47.7848 147.852 45.4298 147.852 42.5297V28.2866H142.113V23.1036H147.852V15.6992H153.775V23.1036H160.922V28.2866H153.775V42.4989H160.912Z" fill="black"/>
<path d="M187.885 37.422H169.323C169.96 41.0213 172.336 43.0987 175.987 43.0987C178.599 43.0987 180.131 42.1114 180.923 40.3837H187.34C185.859 45.5154 181.56 48.2817 175.74 48.2817C168.685 48.2817 163.502 42.9958 163.502 35.4475C163.502 27.8992 168.685 22.6133 175.74 22.6133C182.794 22.6133 187.988 27.8992 187.988 35.4475C187.988 36.1365 187.936 36.7844 187.885 37.422ZM169.374 33.2262H182.116C181.478 29.7708 179.205 27.7963 175.75 27.7963C172.284 27.7963 170.012 29.7708 169.374 33.2262Z" fill="black"/>
<path d="M216.927 47.7881H211.004V23.1069H216.927V26.3155C218.357 23.9502 220.732 22.6133 223.54 22.6133C226.892 22.6133 229.71 24.1456 231.14 27.1587C232.621 24.2484 235.438 22.6133 238.842 22.6133C243.83 22.6133 247.532 25.9247 247.532 32.5372V47.7881H241.609V33.7198C241.609 29.8737 239.83 27.7963 236.919 27.7963C234.009 27.7963 232.23 29.8737 232.23 33.7198V47.7881H226.306V33.7198C226.306 29.8737 224.527 27.7963 221.617 27.7963C218.707 27.7963 216.927 29.8737 216.927 33.7198V47.7881Z" fill="black"/>
<path d="M252.428 15.7022C252.428 13.5837 254.011 12 256.13 12C258.3 12 259.832 13.5837 259.832 15.7022C259.832 17.7795 258.3 19.4044 256.13 19.4044C254.011 19.4044 252.428 17.7795 252.428 15.7022Z" fill="black"/>
<path d="M259.09 23.1055H253.166V47.7867H259.09V23.1055Z" fill="black"/>
<path d="M270.896 47.7881H264.973V23.1069H270.896V26.6651C272.428 24.053 274.948 22.6133 278.002 22.6133C283.237 22.6133 287.186 26.0686 287.186 33.0308V47.7881H281.262V34.2134C281.262 30.0691 279.288 27.7963 276.079 27.7963C272.871 27.7963 270.896 30.0691 270.896 34.2134V47.7881Z" fill="black"/>
<path d="M307.733 44.1373C306.149 47.0477 303.29 48.2817 299.886 48.2817C295.639 48.2817 291.598 46.1633 291.598 41.1756C291.598 30.5627 307.64 35.3035 307.64 30.3673C307.64 28.4442 305.666 27.3027 303.095 27.3027C300.38 27.3027 298.508 28.7322 298.508 31.4985H292.338C292.338 25.0814 297.573 22.6133 303.095 22.6133C308.525 22.6133 313.564 24.8346 313.564 30.6141V47.7881H307.733V44.1373ZM301.11 43.3455C304.566 43.3455 307.723 41.371 307.723 37.6174V36.4862C303.774 38.111 297.655 37.6174 297.655 40.7848C297.655 42.5125 299.136 43.3455 301.11 43.3455Z" fill="black"/>
<path d="M318.943 47.7877V12H324.867V47.7877H318.943Z" fill="black"/>
<path d="M205.06 28.8356H207.589V23.0664H205.625C202.602 23.0664 199.691 24.5267 198.097 27.0977L198.056 27.1594V23.159H192.133V47.8402H198.056V35.2527C198.056 31.1084 200.627 28.8356 205.018 28.8356C205.039 28.8356 205.049 28.8356 205.06 28.8356Z" fill="black"/>
<path d="M385.296 55H380V0H385.296V55Z" fill="#00CF9D"/>
</svg>
